<mxfile host="65bd71144e">
    <diagram name="Page-1" id="E1Tv2Iv79u1PMs5fWFh_">
        <mxGraphModel dx="438" dy="373" grid="1" gridSize="10" guides="1" tooltips="1" connect="1" arrows="1" fold="1" page="1" pageScale="1" pageWidth="827" pageHeight="1169" math="0" shadow="0">
            <root>
                <mxCell id="0"/>
                <mxCell id="1" parent="0"/>
                <mxCell id="0T9UpzUMcqbGcj6tkd16-11" value="TLSNotary" style="rounded=1;whiteSpace=wrap;html=1;" parent="1" vertex="1">
                    <mxGeometry x="70" y="832" width="120" height="20" as="geometry"/>
                </mxCell>
                <mxCell id="0T9UpzUMcqbGcj6tkd16-1" value="Server" style="ellipse;whiteSpace=wrap;html=1;aspect=fixed;shadow=1;" parent="1" vertex="1">
                    <mxGeometry x="70" y="859" width="60" height="60" as="geometry"/>
                </mxCell>
                <mxCell id="0T9UpzUMcqbGcj6tkd16-4" value="User A" style="ellipse;whiteSpace=wrap;html=1;aspect=fixed;shadow=1;" parent="1" vertex="1">
                    <mxGeometry x="230" y="859" width="60" height="60" as="geometry"/>
                </mxCell>
                <mxCell id="0T9UpzUMcqbGcj6tkd16-5" value="User B" style="ellipse;whiteSpace=wrap;html=1;aspect=fixed;shadow=1;" parent="1" vertex="1">
                    <mxGeometry x="390" y="859" width="60" height="60" as="geometry"/>
                </mxCell>
                <mxCell id="0T9UpzUMcqbGcj6tkd16-2" style="edgeStyle=orthogonalEdgeStyle;rounded=0;orthogonalLoop=1;jettySize=auto;html=1;exitX=1;exitY=0.5;exitDx=0;exitDy=0;entryX=0;entryY=0.5;entryDx=0;entryDy=0;" parent="1" source="0T9UpzUMcqbGcj6tkd16-4" target="0T9UpzUMcqbGcj6tkd16-5" edge="1">
                    <mxGeometry relative="1" as="geometry"/>
                </mxCell>
                <mxCell id="0T9UpzUMcqbGcj6tkd16-3" value="ZKP" style="edgeLabel;html=1;align=center;verticalAlign=middle;resizable=0;points=[];" parent="0T9UpzUMcqbGcj6tkd16-2" vertex="1" connectable="0">
                    <mxGeometry x="-0.2352" y="1" relative="1" as="geometry">
                        <mxPoint x="12" y="-9" as="offset"/>
                    </mxGeometry>
                </mxCell>
                <mxCell id="0T9UpzUMcqbGcj6tkd16-8" value="🔐&lt;br&gt;signed&lt;br&gt;data&lt;br&gt;" style="shape=note;whiteSpace=wrap;html=1;backgroundOutline=1;darkOpacity=0.05;size=17;" parent="1" vertex="1">
                    <mxGeometry x="152.5" y="912" width="60" height="70" as="geometry"/>
                </mxCell>
                <mxCell id="0T9UpzUMcqbGcj6tkd16-9" value="🔐redacted&lt;br&gt;signed&lt;br style=&quot;border-color: var(--border-color);&quot;&gt;data" style="shape=note;whiteSpace=wrap;html=1;backgroundOutline=1;darkOpacity=0.05;size=17;" parent="1" vertex="1">
                    <mxGeometry x="310" y="899" width="60" height="70" as="geometry"/>
                </mxCell>
                <mxCell id="0T9UpzUMcqbGcj6tkd16-10" value="&lt;ul style=&quot;font-size: 11px;&quot;&gt;&lt;li style=&quot;border-color: var(--border-color);&quot;&gt;Authenticity ✅&lt;/li&gt;&lt;li style=&quot;border-color: var(--border-color);&quot;&gt;Integrity&amp;nbsp;✅&lt;/li&gt;&lt;li style=&quot;border-color: var(--border-color);&quot;&gt;Only required info&amp;nbsp;✅&lt;br&gt;&lt;/li&gt;&lt;/ul&gt;" style="rounded=0;whiteSpace=wrap;html=1;align=left;fillColor=none;strokeColor=none;horizontal=1;" parent="1" vertex="1">
                    <mxGeometry x="346" y="918" width="164" height="60" as="geometry"/>
                </mxCell>
                <mxCell id="0T9UpzUMcqbGcj6tkd16-16" style="edgeStyle=orthogonalEdgeStyle;rounded=0;orthogonalLoop=1;jettySize=auto;html=1;exitX=1;exitY=0.5;exitDx=0;exitDy=0;entryX=0;entryY=0.5;entryDx=0;entryDy=0;" parent="1" source="0T9UpzUMcqbGcj6tkd16-14" target="0T9UpzUMcqbGcj6tkd16-4" edge="1">
                    <mxGeometry relative="1" as="geometry"/>
                </mxCell>
                <mxCell id="0T9UpzUMcqbGcj6tkd16-14" value="MPC-TLS" style="rounded=1;whiteSpace=wrap;html=1;" parent="1" vertex="1">
                    <mxGeometry x="147.5" y="874" width="65" height="30" as="geometry"/>
                </mxCell>
                <mxCell id="0T9UpzUMcqbGcj6tkd16-15" style="edgeStyle=orthogonalEdgeStyle;rounded=0;orthogonalLoop=1;jettySize=auto;html=1;exitX=1;exitY=0.5;exitDx=0;exitDy=0;entryX=0;entryY=0.5;entryDx=0;entryDy=0;" parent="1" source="0T9UpzUMcqbGcj6tkd16-1" target="0T9UpzUMcqbGcj6tkd16-14" edge="1">
                    <mxGeometry relative="1" as="geometry"/>
                </mxCell>
            </root>
        </mxGraphModel>
    </diagram>
</mxfile>